<svg xmlns="http://www.w3.org/2000/svg" width="30.868" height="30.868" viewBox="0 0 30.868 30.868">
    <g>
        <g fill="#f7f7f7" stroke="#fff" stroke-width="4px" transform="translate(-343.068 -611.058) translate(343.068 611.058)">
            <circle cx="15.434" cy="15.434" r="15.434" stroke="none"/>
            <circle cx="15.434" cy="15.434" r="13.434" fill="none"/>
        </g>
        <g>
            <g>
                <path fill="#030104" d="M10.419 16.251a3.126 3.126 0 1 0 3.126 3.126 3.126 3.126 0 0 0-3.126-3.126zm8.335-3.126h-2.5a.928.928 0 0 1-.823-.593l-.646-1.94a.929.929 0 0 0-.823-.592H6.877a.928.928 0 0 0-.823.593l-.646 1.94a.929.929 0 0 1-.823.593h-2.5A2.09 2.09 0 0 0 0 15.21v9.377a2.09 2.09 0 0 0 2.084 2.083h16.67a2.09 2.09 0 0 0 2.084-2.084V15.21a2.09 2.09 0 0 0-2.084-2.084zm-8.335 11.462a5.21 5.21 0 1 1 5.21-5.21 5.21 5.21 0 0 1-5.21 5.21zm7.606-7.92a.729.729 0 1 1 .729-.729.729.729 0 0 1-.729.729z" transform="translate(-343.068 -611.058) translate(348.247 618.062) translate(0 0) translate(0 -10)"/>
            </g>
        </g>
    </g>
</svg>
