<svg xmlns="http://www.w3.org/2000/svg" width="21.139" height="21.139" viewBox="0 0 21.139 21.139">
    <path fill="#fff" d="M0 0H12.159V18.239H0z" transform="translate(6.225 2.899)"/>
    <path fill="#174eff" d="M18.292 0H2.851A2.849 2.849 0 0 0 0 2.849V18.29a2.848 2.848 0 0 0 2.849 2.848h7.616l.013-7.554H8.517a.463.463 0 0 1-.463-.461l-.009-2.435a.463.463 0 0 1 .463-.465h1.959V7.871a3.844 3.844 0 0 1 4.1-4.217h2a.463.463 0 0 1 .463.463V6.17a.463.463 0 0 1-.463.463h-1.225c-1.325 0-1.581.629-1.581 1.553v2.037h2.911a.463.463 0 0 1 .46.518l-.289 2.435a.463.463 0 0 1-.46.409h-2.609l-.013 7.554h4.531a2.848 2.848 0 0 0 2.848-2.848V2.849A2.849 2.849 0 0 0 18.292 0z" transform="translate(-.002)"/>
</svg>
