<svg xmlns="http://www.w3.org/2000/svg" id="Group_3363" width="29.515" height="23.191" viewBox="0 0 29.515 23.191">
    <defs>
        <style>
            .cls-1{fill:#fff}
        </style>
    </defs>
    <path id="Path_5858" d="M301.7 85.668H288v2.108h13.7zm0 0" class="cls-1" transform="translate(-288 -77.235)"/>
    <path id="Path_5859" d="M301.7 43H288v2.108h13.7zm0 0" class="cls-1" transform="translate(-288 -38.783)"/>
    <path id="Path_5860" d="M301.7 128.332H288v2.109h13.7zm0 0" class="cls-1" transform="translate(-288 -115.682)"/>
    <path id="Path_5861" d="M301.7 171H288v2.108h13.7zm0 0" class="cls-1" transform="translate(-288 -154.134)"/>
    <path id="Path_5862" d="M301.7.332H288v2.109h13.7zm0 0" class="cls-1" transform="translate(-288 -0.332)"/>
    <path id="Path_5863" d="M301.7 213.668H288v2.108h13.7zm0 0" class="cls-1" transform="translate(-288 -192.585)"/>
    <path id="Path_5864" d="M170.027 128.332v2.109h9.55a8.837 8.837 0 0 1 0-2.109zm0 0" class="cls-1" transform="translate(-154.216 -115.682)"/>
    <path id="Path_5865" d="M154.238 171v2.108h11.111a8.846 8.846 0 0 1-1.075-2.108zm0 0" class="cls-1" transform="translate(-138.427 -154.134)"/>
    <path id="Path_5866" d="M128 213.668v2.108h13.7v-1.623a7.646 7.646 0 0 1-.664-.485zm0 0" class="cls-1" transform="translate(-112.188 -192.585)"/>
</svg>
