<svg xmlns="http://www.w3.org/2000/svg" id="clock" width="22.967" height="22.967" viewBox="0 0 22.967 22.967">
    <defs>
        <style>
            .cls-1{fill:#e0a831}
        </style>
    </defs>
    <g id="Group_3398" transform="translate(7.309 5.221)">
        <g id="Group_3397">
            <path id="Path_12644" d="M167.809 116.395a1.044 1.044 0 0 0-1.044 1.044v4.87h-2.783a1.044 1.044 0 1 0 0 2.088h3.827a1.044 1.044 0 0 0 1.044-1.044v-5.915a1.044 1.044 0 0 0-1.044-1.043z" class="cls-1" transform="translate(-162.938 -116.395)"/>
        </g>
    </g>
    <g id="Group_3400">
        <g id="Group_3399">
            <path id="Path_12645" d="M11.484 0a11.484 11.484 0 1 0 11.483 11.484A11.5 11.5 0 0 0 11.484 0zm0 20.879a9.4 9.4 0 1 1 9.4-9.4 9.406 9.406 0 0 1-9.4 9.4z" class="cls-1"/>
        </g>
    </g>
</svg>
