<svg xmlns="http://www.w3.org/2000/svg" width="34.57" height="15.534" viewBox="0 0 34.57 15.534">
    <path fill="#fff" d="M50.05 76.382a1.745 1.745 0 0 0 1.066-.406l7.765-7.461 8.07 6.344a1.458 1.458 0 0 0 1.878 0l10.963-8.577-.356 4.518a1.5 1.5 0 0 0 1.421 1.624h.1A1.508 1.508 0 0 0 82.482 71l.609-7.918v-.152a1.671 1.671 0 0 0-.3-.964 1.5 1.5 0 0 0-1.472-.558l-8.171-.558a1.526 1.526 0 0 0-.2 3.045l4.517.3-9.592 7.512-8.121-6.446a1.534 1.534 0 0 0-1.979.1l-8.78 8.375a1.516 1.516 0 0 0-.051 2.132 1.439 1.439 0 0 0 1.108.514z" transform="translate(-48.521 -60.849)"/>
</svg>
