<svg xmlns="http://www.w3.org/2000/svg" width="31.568" height="30.544" viewBox="0 0 31.568 30.544">
    <defs>
        <style>
            .cls-1,.cls-2,.cls-3,.cls-4{fill:#4d79f6}.cls-2{opacity:.9}.cls-3{opacity:.6}.cls-4{opacity:.3}
        </style>
    </defs>
    <g id="stack" transform="translate(0 -35.441)">
        <g id="Group_3381" data-name="Group 3381" transform="translate(0 35.441)">
            <path id="Path_9897" d="M.512 44.65l14.943 8.07a.681.681 0 0 0 .331.086.7.7 0 0 0 .331-.086l14.942-8.07a1.1 1.1 0 0 0 .51-1 1.078 1.078 0 0 0-.542-.97l-14.944-7.169a.677.677 0 0 0-.6 0L.543 42.682a1.08 1.08 0 0 0-.543.97 1.1 1.1 0 0 0 .512.998zm15.273-7.011l12.7 6.093-12.7 6.857-12.7-6.857z" class="cls-1" data-name="Path 9897" transform="translate(0 -35.441)"/>
            <path id="Path_9898" d="M.512 127.229l15.273 8.249 15.273-8.249a1.18 1.18 0 0 0 .443-1.394.787.787 0 0 0-1.1-.558l-14.611 7.892-14.616-7.892a.788.788 0 0 0-1.1.558 1.18 1.18 0 0 0 .438 1.394z" class="cls-2" data-name="Path 9898" transform="translate(-.001 -113.427)"/>
            <path id="Path_9899" d="M.512 159.627l15.273 8.249 15.273-8.249a1.179 1.179 0 0 0 .443-1.393.787.787 0 0 0-1.1-.558l-14.611 7.892-14.616-7.892a.788.788 0 0 0-1.1.558 1.179 1.179 0 0 0 .438 1.393z" class="cls-3" data-name="Path 9899" transform="translate(-.001 -141.58)"/>
            <path id="Path_9900" d="M.512 192.031l15.273 8.249 15.273-8.249a1.179 1.179 0 0 0 .443-1.393.788.788 0 0 0-1.1-.558l-14.611 7.892-14.616-7.893a.788.788 0 0 0-1.1.558 1.18 1.18 0 0 0 .438 1.394z" class="cls-4" data-name="Path 9900" transform="translate(-.001 -169.736)"/>
        </g>
    </g>
</svg>
