<svg xmlns="http://www.w3.org/2000/svg" width="22.381" height="22.381" viewBox="0 0 22.381 22.381">
    <path fill="#2292e6" d="M11.19 0A11.19 11.19 0 1 1 0 11.19 11.19 11.19 0 0 1 11.19 0z"/>
    <g>
        <path fill="#f1f2f2" d="M38.141 35.282a5.337 5.337 0 0 1-1.541.418 2.682 2.682 0 0 0 1.176-1.48 5.355 5.355 0 0 1-1.7.649 2.677 2.677 0 0 0-4.558 2.44 7.593 7.593 0 0 1-5.513-2.8 2.678 2.678 0 0 0 .828 3.571 2.656 2.656 0 0 1-1.211-.335v.034a2.676 2.676 0 0 0 2.146 2.623 2.685 2.685 0 0 1-1.208.046 2.678 2.678 0 0 0 2.5 1.858 5.4 5.4 0 0 1-3.96 1.108 7.607 7.607 0 0 0 11.711-6.409c0-.116 0-.231-.008-.346a5.424 5.424 0 0 0 1.335-1.384z" transform="translate(5.007 6.788) translate(-25.103 -34.028)"/>
    </g>
</svg>
