<svg xmlns="http://www.w3.org/2000/svg" id="woman" width="15.545" height="23.057" viewBox="0 0 15.545 23.057">
    <defs>
        <style>
            .cls-1{fill:#6e6e6e}
        </style>
    </defs>
    <path id="Path_12646" d="M176.452 300.724h.979v1.481a1.411 1.411 0 0 0 2.822 0v-1.481h.994a1.224 1.224 0 1 0 0-2.449h-.994v-4.459h-2.807l-.015 4.459h-.979a1.224 1.224 0 0 0 0 2.449z" class="cls-1" transform="translate(-171.077 -280.56)"/>
    <path id="Path_12647" d="M226.97 301.27v-3.341h-2.807l-.011 3.341a7.764 7.764 0 0 0 2.818 0z" class="cls-1" transform="translate(-217.794 -284.486)"/>
    <path id="Path_12648" d="M91.014 0a7.773 7.773 0 1 0 7.773 7.773A7.773 7.773 0 0 0 91.014 0zm0 12.579a4.807 4.807 0 1 1 4.806-4.806 4.807 4.807 0 0 1-4.806 4.806z" class="cls-1" transform="translate(-83.241)"/>
    <path id="Path_12649" d="M86.335 8.878a4.809 4.809 0 0 1 5.778-5.785 15.844 15.844 0 0 1 3.382-1.671 7.772 7.772 0 0 0-10.432 11.351 14.482 14.482 0 0 1 1.272-3.895z" class="cls-1" transform="translate(-83.241)"/>
</svg>
